<svg xmlns="http://www.w3.org/2000/svg" xmlns:xlink="http://www.w3.org/1999/xlink" width="20px" height="20px" viewBox="0 0 20 20" version="1.1">
    <title>仓库</title>
    <g id="页面-1" stroke="none" stroke-width="1" fill="none" fill-rule="evenodd">
        <g id="组织架构/单位管理" transform="translate(-16.000000, -742.000000)">
            <g id="编组-2备份-123" transform="translate(8.000000, 730.000000)">
                <rect id="矩形" x="0" y="0" width="224" height="44"/>
                <g id="仓库" transform="translate(18.000000, 22.000000) rotate(-360.000000) translate(-18.000000, -22.000000) translate(8.000000, 12.000000)" fill="#7D8592" fill-rule="nonzero">
                    <path d="M16.1885868,9.43893224 L16.1885868,16.0587492 C16.1885868,16.5785876 15.7627375,17 15.2374259,17 L4.77465559,17 C4.24934392,17 3.82349467,16.5785876 3.82349467,16.0587492 L3.82349467,9.43610849 L3.17194943,9.9773277 C2.87002654,10.2278898 2.42001034,10.1888039 2.16681011,9.8900267 C1.91360988,9.59124954 1.9531074,9.14592205 2.25503028,8.8953599 L3.82349467,7.59313939 L3.82349467,7.58749189 L3.83062838,7.58749189 L3.90909916,7.52207496 L8.77714081,3.44551771 C9.48645129,2.8514941 10.5256302,2.8514941 11.2349406,3.44551771 L16.1809775,7.58702127 L16.1885868,7.58702127 L16.1885868,7.59643378 L17.7532465,8.8953599 C18.048106,9.1476956 18.0836743,9.5875305 17.8331189,9.88305808 C17.5825636,10.1785857 17.1386793,10.2203556 16.8363274,9.97685708 L16.1885868,9.43893224 Z M7.62813839,10.4168918 C7.36548255,10.4168918 7.15255792,10.627598 7.15255792,10.8875172 C7.15255792,11.1474365 7.36548255,11.3581426 7.62813839,11.3581426 L12.3839431,11.3581426 C12.6465989,11.3581426 12.8595235,11.1474365 12.8595235,10.8875172 C12.8595235,10.627598 12.6465989,10.4168918 12.3839431,10.4168918 L7.62813839,10.4168918 Z M7.62813839,13.2406443 C7.36548256,13.2406443 7.15255795,13.4513504 7.15255795,13.7112697 C7.15255795,13.9711889 7.36548256,14.1818951 7.62813839,14.1818951 L12.3839431,14.1818951 C12.6465989,14.1818951 12.8595235,13.9711889 12.8595235,13.7112697 C12.8595235,13.4513504 12.6465989,13.2406443 12.3839431,13.2406443 L7.62813839,13.2406443 L7.62813839,13.2406443 Z" id="形状"/>
                </g>
            </g>
        </g>
    </g>
</svg>