<?xml version="1.0" encoding="UTF-8"?>
<svg width="24px" height="24px" viewBox="0 0 24 24" version="1.1" xmlns="http://www.w3.org/2000/svg" xmlns:xlink="http://www.w3.org/1999/xlink">
    <title>单位管理</title>
    <g id="页面-1" stroke="none" stroke-width="1" fill="none" fill-rule="evenodd">
        <g id="组织架构/单位管理" transform="translate(-48.000000, -116.000000)">
            <g id="编组-2备份-4" transform="translate(8.000000, 106.000000)">
                <g id="单位管理" transform="translate(40.000000, 10.000000)">
                    <rect id="矩形" x="0" y="0" width="24" height="24"></rect>
                    <path d="M7.79629983,8.85053405 L11.0127789,8.85053405 L11.0127789,10.0712092 L7.79629983,10.0712092 L7.79629983,8.85053405 Z M7.79629983,11.4505722 L11.0127789,11.4505722 L11.0127789,12.6712474 L7.79629983,12.6712474 L7.79629983,11.4505722 Z M19.3621972,10.3615721 C19.3621972,9.46437584 19.04177,8.85053405 18.141522,8.85053405 L15.0959374,8.85053405 L15.0959374,9.95264592 L17.7325958,9.95264592 C17.9584208,9.95264592 18.141522,10.1357472 18.141522,10.3615721 L18.141522,18.4817496 L14.1377074,18.4817496 L14.1377074,6.28101278 C14.1377074,5.27090406 13.3168034,4.45 12.3066946,4.45 L6.49933244,4.45 C5.48922373,4.45 4.66831966,5.27090406 4.66831966,6.28101278 L4.66831966,18.4817496 L4,18.4817496 L4,19.5589071 L20,19.5589071 L20,18.4817496 L19.3621972,18.4817496 L19.3621972,10.3615721 Z M5.67534872,18.4949169 L5.67534872,6.15242262 C5.67534872,5.81673694 5.95000063,5.54208502 6.28568631,5.54208502 L12.4992749,5.54208502 C12.8349606,5.54208502 13.1096125,5.81673694 13.1096125,6.15242262 L13.1096125,18.4949169 L5.67534872,18.4949169 Z" id="形状" fill="#7D8592" fill-rule="nonzero"></path>
                </g>
            </g>
        </g>
    </g>
</svg>