<svg xmlns="http://www.w3.org/2000/svg" xmlns:xlink="http://www.w3.org/1999/xlink" width="20px" height="20px" viewBox="0 0 20 20" version="1.1">
    <title>切片</title>
    <defs>
        <path d="M12.9333333,0 C13.1542472,-4.05812251e-17 13.3333333,0.1790861 13.3333333,0.4 L13.3333333,2.1 C13.3333333,2.3209139 13.1542472,2.5 12.9333333,2.5 L0.4,2.5 C0.1790861,2.5 3.60121057e-16,2.3209139 0,2.1 L0,0.4 C-2.705415e-17,0.1790861 0.1790861,2.07114679e-16 0.4,0 L12.9333333,0 Z M12.0833333,0.666666667 C11.7611672,0.666666667 11.5,0.927833896 11.5,1.25 C11.5,1.5721661 11.7611672,1.83333333 12.0833333,1.83333333 C12.4054994,1.83333333 12.6666667,1.5721661 12.6666667,1.25 C12.6666667,0.927833896 12.4054994,0.666666667 12.0833333,0.666666667 Z M1.04166667,1.08333333 L7.29166667,1.08333333 C7.40672599,1.08333333 7.5,1.17660734 7.5,1.29166667 C7.5,1.40672599 7.40672599,1.5 7.29166667,1.5 L1.04166667,1.5 C0.926607344,1.5 0.833333333,1.40672599 0.833333333,1.29166667 C0.833333333,1.17660734 0.926607344,1.08333333 1.04166667,1.08333333 Z M12.9333333,4.16666667 C13.1542472,4.16666667 13.3333333,4.34575277 13.3333333,4.56666667 L13.3333333,6.26666667 C13.3333333,6.48758057 13.1542472,6.66666667 12.9333333,6.66666667 L0.4,6.66666667 C0.1790861,6.66666667 3.60121057e-16,6.48758057 0,6.26666667 L0,4.56666667 C-2.705415e-17,4.34575277 0.1790861,4.16666667 0.4,4.16666667 L12.9333333,4.16666667 Z M12.0833333,4.83333333 C11.7611672,4.83333333 11.5,5.09450056 11.5,5.41666667 C11.5,5.73883277 11.7611672,6 12.0833333,6 C12.4054994,6 12.6666667,5.73883277 12.6666667,5.41666667 C12.6666667,5.09450056 12.4054994,4.83333333 12.0833333,4.83333333 Z M1.04166667,5.25 L7.29166667,5.25 C7.40672599,5.25 7.5,5.34327401 7.5,5.45833333 C7.5,5.57339266 7.40672599,5.66666667 7.29166667,5.66666667 L1.04166667,5.66666667 C0.926607344,5.66666667 0.833333333,5.57339266 0.833333333,5.45833333 C0.833333333,5.34327401 0.926607344,5.25 1.04166667,5.25 Z M12.9333333,8.33333333 C13.1542472,8.33333333 13.3333333,8.51241943 13.3333333,8.73333333 L13.3333333,10.4333333 C13.3333333,10.6542472 13.1542472,10.8333333 12.9333333,10.8333333 L0.4,10.8333333 C0.1790861,10.8333333 3.60121057e-16,10.6542472 0,10.4333333 L0,8.73333333 C-2.705415e-17,8.51241943 0.1790861,8.33333333 0.4,8.33333333 L12.9333333,8.33333333 Z M12.0833333,9 C11.7611672,9 11.5,9.26116723 11.5,9.58333333 C11.5,9.90549944 11.7611672,10.1666667 12.0833333,10.1666667 C12.4054994,10.1666667 12.6666667,9.90549944 12.6666667,9.58333333 C12.6666667,9.26116723 12.4054994,9 12.0833333,9 Z M1.04166667,9.41666667 L7.29166667,9.41666667 C7.40672599,9.41666667 7.5,9.50994068 7.5,9.625 C7.5,9.74005932 7.40672599,9.83333333 7.29166667,9.83333333 L1.04166667,9.83333333 C0.926607344,9.83333333 0.833333333,9.74005932 0.833333333,9.625 C0.833333333,9.50994068 0.926607344,9.41666667 1.04166667,9.41666667 Z" id="path-1"/>
    </defs>
    <g id="页面-1" stroke="none" stroke-width="1" fill="none" fill-rule="evenodd">
        <g id="组织架构/单位管理" transform="translate(-16.000000, -550.000000)">
            <g id="编组-2备份-113" transform="translate(8.000000, 538.000000)">
                <g id="下拉" transform="translate(8.000000, 12.000000)">
                    <g id="bright/字色/引导注释-copy" transform="translate(3.333333, 4.583333)">
                        <mask id="mask-2" fill="white">
                            <use xlink:href="#path-1"/>
                        </mask>
                        <use id="蒙版" fill="#7D8592" xlink:href="#path-1"/>
                        <g id="编组" mask="url(#mask-2)">
                            <g transform="translate(-25.589074, -25.344778)" id="Bright/zt_free">
                                <rect id="Color/Bright/font/辅助字色2" fill="#7D8592" x="0" y="0" width="129.166667" height="120.478861"/>
                            </g>
                        </g>
                    </g>
                </g>
            </g>
        </g>
    </g>
</svg>