<?xml version="1.0" standalone="no"?><!DOCTYPE svg PUBLIC "-//W3C//DTD SVG 1.1//EN" "http://www.w3.org/Graphics/SVG/1.1/DTD/svg11.dtd"><svg t="1661224434925" class="icon" viewBox="0 0 1024 1024" version="1.1" xmlns="http://www.w3.org/2000/svg" p-id="3810" xmlns:xlink="http://www.w3.org/1999/xlink" width="16" height="16"><defs><style type="text/css">@font-face { font-family: feedback-iconfont; src: url("//at.alicdn.com/t/font_1031158_u69w8yhxdu.woff2?t=1630033759944") format("woff2"), url("//at.alicdn.com/t/font_1031158_u69w8yhxdu.woff?t=1630033759944") format("woff"), url("//at.alicdn.com/t/font_1031158_u69w8yhxdu.ttf?t=1630033759944") format("truetype"); }
</style></defs><path d="M311.125333 170.666667c9.429333 0 17.066667 7.68 17.066667 17.066666v61.696c0 9.429333 7.68 17.066667 17.066667 17.066667h333.482666a17.066667 17.066667 0 0 0 17.066667-17.066667V187.733333c0-9.386667 7.637333-17.066667 17.066667-17.066666H810.666667a42.666667 42.666667 0 0 1 42.666666 42.666666v597.333334a42.666667 42.666667 0 0 1-42.666666 42.666666H213.333333a42.666667 42.666667 0 0 1-42.666666-42.666666V213.333333a42.666667 42.666667 0 0 1 42.666666-42.666666zM512 561.621333c-61.781333 0-149.504 37.418667-161.450667 63.317334-2.730667 5.888-4.650667 14.421333-6.272 25.770666a387.413333 387.413333 0 0 0-2.133333 17.962667l-0.554667 5.888-0.128 1.450667-0.085333 0.896-0.042667 1.152c0 21.333333 17.365333 38.741333 38.741334 38.741333h263.850666a38.741333 38.741333 0 0 0 38.741334-38.741333l-0.042667-1.152-0.213333-2.346667-0.512-5.888a379.648 379.648 0 0 0-2.133334-17.962667c-1.706667-11.349333-3.584-19.882667-6.314666-25.770666-11.946667-25.898667-99.669333-63.317333-161.450667-63.317334zM512 375.466667a85.333333 85.333333 0 1 0 0 170.666666 85.333333 85.333333 0 0 0 0-170.666666zM616.234667 170.666667a27.050667 27.050667 0 1 1 0 54.101333h-208.213334a27.050667 27.050667 0 0 1 0-54.101333h208.213334z" p-id="3811"></path></svg>