<svg xmlns="http://www.w3.org/2000/svg" xmlns:xlink="http://www.w3.org/1999/xlink" width="20px" height="20px" viewBox="0 0 20 20" version="1.1">
    <title>切片</title>
    <defs>
        <path d="M12.7892809,0 C13.0101948,-4.33003142e-16 13.1892809,0.1790861 13.1892809,0.4 L13.1892809,3.77517819 C13.1892809,3.99609209 13.0101948,4.17517819 12.7892809,4.17517819 L9.03643533,4.17517819 C8.81552144,4.17517819 8.63643533,3.99609209 8.63643533,3.77517819 L8.63643533,2.56666667 L6.54694837,2.56666667 C6.32603447,2.56666667 6.14694837,2.74575277 6.14694837,2.96666667 L6.14694837,10.3666667 C6.14694837,10.5875806 6.32603447,10.7666667 6.54694837,10.7666667 L8.636,10.766 L8.63643533,9.57508196 C8.63643533,9.35416806 8.81552144,9.17508196 9.03643533,9.17508196 L12.7892809,9.17508196 C13.0101948,9.17508196 13.1892809,9.35416806 13.1892809,9.57508196 L13.1892809,12.9333333 C13.1892809,13.1542472 13.0101948,13.3333333 12.7892809,13.3333333 L9.03643533,13.3333333 C8.81552144,13.3333333 8.63643533,13.1542472 8.63643533,12.9333333 L8.636,11.877 L5.42555785,11.8777778 C5.20464395,11.8777778 5.02555785,11.6986917 5.02555785,11.4777778 L5.025,7.744 L3.3851152,9.36984971 C3.23095116,9.52260058 2.98310434,9.52455335 2.82655256,9.37425059 L0.151785769,6.80625158 C-0.00757208288,6.65325477 -0.0127287204,6.40004128 0.140268097,6.24068342 L0.147273616,6.23356664 L2.79082521,3.6142476 C2.9475067,3.45900235 3.20028808,3.45988621 3.35588012,3.61622334 L5.025,5.294 L5.02555785,1.85555556 C5.02555785,1.63464166 5.20464395,1.45555556 5.42555785,1.45555556 L8.63643533,1.45555556 L8.63643533,0.4 C8.63643533,0.1790861 8.81552144,-7.04410774e-17 9.03643533,0 L12.7892809,0 Z" id="path-1"/>
    </defs>
    <g id="页面-1" stroke="none" stroke-width="1" fill="none" fill-rule="evenodd">
        <g id="组织架构/单位管理" transform="translate(-16.000000, -598.000000)">
            <g id="编组-2备份-117" transform="translate(8.000000, 586.000000)">
                <g id="下拉" transform="translate(8.000000, 12.000000)">
                    <g id="bright/字色/引导注释-copy" transform="translate(3.477386, 3.333333)">
                        <mask id="mask-2" fill="white">
                            <use xlink:href="#path-1"/>
                        </mask>
                        <use id="蒙版" fill="#7D8592" fill-rule="nonzero" xlink:href="#path-1"/>
                        <g id="编组" mask="url(#mask-2)">
                            <g transform="translate(-25.969863, -24.094778)" id="Bright/zt_free">
                                <rect id="Color/Bright/font/辅助字色2" fill="#7D8592" x="0" y="0" width="130.361648" height="120.478861"/>
                            </g>
                        </g>
                    </g>
                </g>
            </g>
        </g>
    </g>
</svg>