<?xml version="1.0" encoding="UTF-8"?>
<svg width="24px" height="24px" viewBox="0 0 24 24" version="1.1" xmlns="http://www.w3.org/2000/svg" xmlns:xlink="http://www.w3.org/1999/xlink">
    <title>用户管理</title>
    <g id="页面-1" stroke="none" stroke-width="1" fill="none" fill-rule="evenodd">
        <g id="组织架构/单位管理" transform="translate(-48.000000, -212.000000)">
            <g id="编组-2备份" transform="translate(8.000000, 202.000000)">
                <g id="用户管理" transform="translate(40.000000, 10.000000)">
                    <rect id="矩形" x="0" y="0" width="24" height="24"></rect>
                    <path d="M16.5545087,12.2476447 C16.7483176,12.0538358 17.0282638,12.0107672 17.2651413,12.0969044 L17.2651413,12.0969044 L18.320323,12.6783311 C18.5572005,12.8506057 18.6433378,13.1520861 18.5356662,13.410498 C18.5356662,13.4320323 18.4495289,13.6043069 18.4495289,13.7765814 C18.4495289,14.2934051 18.8802153,14.7240915 19.397039,14.7240915 L19.397039,14.7240915 L19.4401077,14.7240915 C19.6769852,14.7240915 19.8492598,14.9179004 19.9138627,15.1978466 C19.935397,15.2624495 20,15.6931359 20,16.0161507 C20,16.1453567 19.9784657,16.4037685 19.9138627,16.8129206 L19.9138627,16.8129206 L19.9138627,16.8344549 C19.8707941,17.1144011 19.6769852,17.30821 19.461642,17.30821 L19.461642,17.30821 L19.461642,17.3297443 L19.4185734,17.3297443 C18.9017497,17.3297443 18.4710633,17.7604307 18.4710633,18.2772544 C18.4710633,18.384926 18.4925976,18.5141319 18.5572005,18.6433378 C18.6648721,18.9017497 18.6002692,19.2032301 18.3633917,19.3539704 L18.3633917,19.3539704 L17.30821,19.935397 C17.2220727,19.9784657 17.1359354,20 17.0497981,20 C16.8775236,20 16.6837147,19.935397 16.5760431,19.8061911 C16.4683715,19.6769852 16.0807537,19.3324361 15.8008075,19.3324361 C15.5208614,19.3324361 15.1547779,19.6339166 15.025572,19.7846568 C14.8317631,19.9784657 14.551817,20.0430686 14.3149394,19.935397 L14.3149394,19.935397 L13.2812921,19.3539704 C13.0444145,19.1816958 12.9582773,18.8802153 13.0659489,18.6218035 C13.0874832,18.5572005 13.1520861,18.384926 13.1520861,18.2557201 C13.1520861,17.7388964 12.7213997,17.30821 12.204576,17.30821 L12.204576,17.30821 L12.1615074,17.30821 C11.9246299,17.30821 11.7523553,17.1359354 11.6877524,16.8344549 C11.6877524,16.8344549 11.6016151,16.3822342 11.6016151,16.0161507 C11.6016151,15.6500673 11.6877524,15.1978466 11.6877524,15.1978466 C11.730821,14.9179004 11.9246299,14.7240915 12.1399731,14.7240915 L12.1399731,14.7240915 L12.1830417,14.7240915 C12.6998654,14.7240915 13.1305518,14.2934051 13.1305518,13.7765814 C13.1305518,13.6043069 13.0444145,13.410498 13.0444145,13.410498 C12.9367429,13.1520861 13.0228802,12.8506057 13.2382234,12.6998654 L13.2382234,12.6998654 L14.3149394,12.0969044 L14.3364738,12.0969044 C14.5733513,12.0107672 14.8532974,12.0538358 15.0471063,12.2476447 C15.1547779,12.3553163 15.5208614,12.6783311 15.8008075,12.6783311 C16.0592194,12.6783311 16.4253028,12.3768506 16.5545087,12.2476447 Z M10.9340511,4 C13.1736205,4 14.9825034,5.80888291 14.9825034,8.0269179 C14.9825034,9.25437416 14.422611,10.4172275 13.4320323,11.192463 L13.4320323,11.192463 L13.1736205,11.3862719 C12.6352624,11.8600269 11.6016151,12.0107672 11.0201884,12.0538358 L11.0201884,12.0538358 L10.3526245,12.0538358 C7.27321669,12.3553163 4.94751009,14.8963661 4.94751009,17.9757739 L4.94751009,17.9757739 L4.94751009,18.8802153 C4.94751009,18.923284 4.96904441,18.9448183 5.01211306,18.9448183 L5.01211306,18.9448183 L11.5370121,18.9448183 C11.6877524,19.2678331 11.8815612,19.5908479 12.0969044,19.8707941 L12.0969044,19.8707941 L4.47375505,19.8707941 C4.2153432,19.8707941 4,19.6769852 4,19.4185734 L4,19.4185734 L4,17.9973082 C4,15.1763122 5.72274563,12.6783311 8.37146703,11.6231494 L8.37146703,11.6231494 L8.67294751,11.4939435 C8.69448183,11.4939435 8.71601615,11.4724092 8.71601615,11.4508748 C8.71601615,11.4293405 8.71601615,11.4078062 8.69448183,11.3862719 L8.69448183,11.3862719 L8.43606999,11.192463 C7.44549125,10.4172275 6.88559892,9.25437416 6.88559892,8.0269179 C6.88559892,5.80888291 8.69448183,4 10.9340511,4 Z M14.5948856,12.7429341 L13.7335128,13.2166891 L13.7550471,13.3028264 C13.7981157,13.410498 13.8411844,13.6043069 13.8411844,13.7981157 C13.8411844,14.6164199 13.2166891,15.3270525 12.3983849,15.4347241 L12.3983849,15.4347241 L12.3553163,15.4347241 L12.3553163,15.4777927 C12.333782,15.6931359 12.3122476,15.8869448 12.3122476,16.0376851 C12.3122476,16.2314939 12.333782,16.4253028 12.3553163,16.5975774 L12.3553163,16.5975774 L12.3553163,16.640646 L12.3983849,16.640646 C13.2166891,16.7483176 13.8411844,17.4374159 13.8411844,18.2772544 C13.8411844,18.4710633 13.7981157,18.6433378 13.7550471,18.7725437 L13.7550471,18.7725437 L13.7335128,18.8156124 L14.551817,19.2247645 L14.5733513,19.2032301 C14.6594886,19.1170929 14.7671602,19.0309556 14.8748318,18.9448183 C15.1978466,18.7294751 15.5208614,18.6002692 15.8008075,18.6002692 C16.0807537,18.6002692 16.4037685,18.7294751 16.7267833,18.9663526 C16.8775236,19.0740242 16.9851952,19.1816958 17.0282638,19.2247645 L17.0282638,19.2247645 L17.0497981,19.2462988 L17.8681023,18.7940781 L17.846568,18.7510094 C17.8034993,18.6433378 17.7604307,18.4495289 17.7604307,18.2557201 C17.7604307,17.4374159 18.384926,16.7267833 19.2032301,16.6191117 L19.2032301,16.6191117 L19.2462988,16.6191117 L19.2462988,16.5760431 C19.2678331,16.4468371 19.2893674,16.2099596 19.2893674,16.0161507 C19.2893674,15.8223419 19.2678331,15.5854643 19.2462988,15.4562584 L19.2462988,15.4562584 L19.2462988,15.4131898 L19.2032301,15.4131898 C18.384926,15.3055182 17.7604307,14.6164199 17.7604307,13.7765814 C17.7604307,13.6043069 17.781965,13.4535666 17.846568,13.2812921 L17.846568,13.2812921 L17.8681023,13.2382234 L17.0497981,12.7860027 L17.0282638,12.807537 C16.9636608,12.87214 16.8559892,12.9582773 16.7267833,13.0444145 C16.4037685,13.2597577 16.102288,13.3674293 15.8223419,13.3674293 C15.5423957,13.3674293 15.2409152,13.2382234 14.9179004,13.0228802 C14.7671602,12.9152086 14.6594886,12.807537 14.6164199,12.7644684 L14.5948856,12.7429341 Z M15.7792732,14.487214 C16.6191117,14.487214 17.30821,15.1763122 17.30821,16.0161507 C17.30821,16.8559892 16.6191117,17.5450875 15.7792732,17.5450875 C14.9394347,17.5450875 14.2503365,16.8559892 14.2503365,16.0161507 C14.2503365,15.1763122 14.9394347,14.487214 15.7792732,14.487214 Z M15.7792732,15.2193809 C15.3485868,15.2193809 14.9825034,15.56393 14.960969,16.0161507 C14.960969,16.4683715 15.3270525,16.8344549 15.7792732,16.8344549 C15.9946164,16.8344549 16.2099596,16.7483176 16.3606999,16.5975774 C16.5114401,16.4468371 16.5975774,16.2314939 16.5975774,16.0161507 C16.5760431,15.56393 16.2099596,15.2193809 15.7792732,15.2193809 Z M10.9340511,4.92597577 C9.21130552,4.92597577 7.8115747,6.32570659 7.8115747,8.0269179 C7.8115747,9.72812921 9.21130552,11.12786 10.9340511,11.12786 C12.6567968,11.12786 14.0565276,9.72812921 14.0565276,8.0269179 C14.0565276,6.32570659 12.6567968,4.92597577 10.9340511,4.92597577 Z" id="形状结合" fill="#7D8592" fill-rule="nonzero"></path>
                </g>
            </g>
        </g>
    </g>
</svg>