<?xml version="1.0" standalone="no"?><!DOCTYPE svg PUBLIC "-//W3C//DTD SVG 1.1//EN" "http://www.w3.org/Graphics/SVG/1.1/DTD/svg11.dtd"><svg t="1661224482662" class="icon" viewBox="0 0 1024 1024" version="1.1" xmlns="http://www.w3.org/2000/svg" p-id="3960" xmlns:xlink="http://www.w3.org/1999/xlink" width="16" height="16"><defs><style type="text/css">@font-face { font-family: feedback-iconfont; src: url("//at.alicdn.com/t/font_1031158_u69w8yhxdu.woff2?t=1630033759944") format("woff2"), url("//at.alicdn.com/t/font_1031158_u69w8yhxdu.woff?t=1630033759944") format("woff"), url("//at.alicdn.com/t/font_1031158_u69w8yhxdu.ttf?t=1630033759944") format("truetype"); }
</style></defs><path d="M554.0864 550.4l35.2768 36.2496 22.016-23.296c20.2752-15.9744 38.5024 2.56 38.5024 2.56l167.5776 172.5952c19.9168 18.944 4.9664 39.68 4.9664 39.68l-84.5824 85.4528c-17.8688 12.9536-34.048-2.1504-34.048-2.1504l-168.96-174.7456c-20.5312-22.016-4.8128-39.2704-4.8128-39.2704l21.6064-22.4256-33.6384-34.0992 36.096-40.5504z m-382.208 262.0416l-1.8944-7.1168a58.1632 58.1632 0 0 1 13.4656-49.8176L453.632 524.8 274.944 342.016 218.2144 341.504 153.6 234.5472l52.9408-53.504 107.008 66.048v57.344l180.8896 185.6-40.8064 34.816 0.1024 0.1024 41.0624-34.5088-0.3584-0.4096 52.3264-44.6464c-50.0224-69.2224-30.3616-145.92-28.8256-151.552 13.9264-60.5184 56.576-96.768 65.3824-103.7824l1.5872-1.2288c86.272-56.32 153.0368-30.1568 169.2672-22.1696l2.8672 1.4848 0.9728 0.512-97.8944 96.768 97.8944 100.6592 97.8944-97.8432c50.8416 126.6688-48.384 207.6672-48.384 207.6672-44.2368 40.0384-99.072 43.264-112.64 43.4688h-3.072c-53.0944 0.4096-88.3712-24.2176-88.3712-24.2176l-323.072 360.2944c-39.424 33.6384-74.24 0-74.24 0s-31.3344-28.0064-34.304-43.008z m429.568-145.5104a10.24 10.24 0 0 0-14.4384 0.2048 11.0592 11.0592 0 0 0-0.1024 15.36l121.1392 127.744a10.6496 10.6496 0 1 0 15.5136-14.6432l-121.856-128.3584z m47.7696-50.5856a10.24 10.24 0 0 0-14.3872 0.2048 11.0592 11.0592 0 0 0-0.1024 15.36l121.1392 127.744a10.7008 10.7008 0 0 0 15.5136-14.6432l-121.856-128.3584a10.1888 10.1888 0 0 0-0.3072-0.3072z m-419.2256 214.528c26.7264-1.7408 27.5456-27.648 27.5456-27.648-0.8192-27.648-26.5216-28.4672-26.5216-28.4672-28.6208 0-28.6208 28.4672-28.6208 28.4672s1.8432 22.7328 21.7088 26.9824z" p-id="3961"></path></svg>