<svg xmlns="http://www.w3.org/2000/svg" xmlns:xlink="http://www.w3.org/1999/xlink" width="20px" height="20px" viewBox="0 0 20 20" version="1.1">
    <title>切片</title>
    <defs>
        <path d="M11.3334624,7.77784747 L11.3334624,5.83333333 L7.33329033,5.83333333 L7.33329033,4.53712995 L10,4.53712995 L10,0 L3.33333333,0 L3.33333333,4.53692089 L6.00004301,4.53692089 L6.00004301,5.83312427 L1.99987098,5.83312427 L1.99987098,7.7776384 L0,7.7776384 L0,11.6664576 L4.66658065,11.6664576 L4.66658065,7.77784747 L3.33333333,7.77784747 L3.33333333,7.12974578 L10.000215,7.12974578 L10.000215,7.77784747 L8.66653764,7.77784747 L8.66653764,11.6666667 L13.3333333,11.6666667 L13.3333333,7.77784747 L11.3334624,7.77784747 Z M4.66679569,2.59261582 L4.66679569,1.29641244 L7.33329033,1.29641244 L7.33329033,2.59261582 L4.66679569,2.59261582 Z" id="path-1"/>
    </defs>
    <g id="页面-1" stroke="none" stroke-width="1" fill="none" fill-rule="evenodd">
        <g id="组织架构/单位管理" transform="translate(-16.000000, -70.000000)">
            <g id="编组-2备份-9" transform="translate(8.000000, 58.000000)">
                <g id="下拉" transform="translate(8.000000, 12.000000)">
                    <g id="bright/字色/引导注释-copy" transform="translate(3.333333, 4.166667)">
                        <mask id="mask-2" fill="white">
                            <use xlink:href="#path-1"/>
                        </mask>
                        <use id="蒙版" fill="#000000" fill-rule="nonzero" xlink:href="#path-1"/>
                        <g id="编组" mask="url(#mask-2)">
                            <g transform="translate(-25.589074, -26.417427)" id="Bright/zt_free">
                                <rect id="Color/Bright/font/辅助字色2" fill="#7D8592" x="0" y="0" width="129.166667" height="125.577804"/>
                            </g>
                        </g>
                    </g>
                </g>
            </g>
        </g>
    </g>
</svg>