<?xml version="1.0" encoding="UTF-8"?>
<svg width="24px" height="24px" viewBox="0 0 24 24" version="1.1" xmlns="http://www.w3.org/2000/svg" xmlns:xlink="http://www.w3.org/1999/xlink">
    <title>切片</title>
    <g id="页面-1" stroke="none" stroke-width="1" fill="none" fill-rule="evenodd">
        <g id="组织架构/单位管理" transform="translate(-48.000000, -260.000000)">
            <g id="编组-2备份-3" transform="translate(8.000000, 250.000000)">
                <g id="职位管理" transform="translate(40.000000, 10.000000)">
                    <rect id="矩形" x="0" y="0" width="24" height="24"></rect>
                    <path d="M19.1061453,8.02346369 L15.4413408,8.02346369 L15.4413408,5.89385475 C15.4413408,5.4 15.0413408,5 14.547486,5 L9.45251397,5 C8.95865922,5 8.55865922,5.4 8.55865922,5.89385475 L8.55865922,8.02346369 L4.89385475,8.02346369 C4.4,8.02346369 4,8.42346369 4,8.91731844 L4,18.1687151 C4,18.6625698 4.4,19.0625698 4.89385475,19.0625698 L19.1061453,19.0625698 C19.6,19.0625698 20,18.6625698 20,18.1687151 L20,8.91731844 C20,8.42346369 19.6,8.02346369 19.1061453,8.02346369 Z M9.89944134,5.89162011 L14.1027933,5.89162011 C14.3486034,5.89162011 14.5497207,6.09273743 14.5497207,6.33854749 L14.5497207,8.01899441 L14.547486,8.02122905 L9.45251397,8.02122905 C9.45251397,8.02122905 9.45027933,8.02122905 9.45027933,8.01899441 L9.45027933,6.33854749 C9.45251397,6.09273743 9.65139665,5.89162011 9.89944134,5.89162011 L9.89944134,5.89162011 Z M19.1061453,9.36424581 L19.1061453,11.1899441 L4.89385475,11.1899441 L4.89385475,9.36424581 C4.89385475,9.11843575 5.09497207,8.91731844 5.34078212,8.91731844 L18.6592179,8.91731844 C18.9050279,8.91731844 19.1061453,9.11620112 19.1061453,9.36424581 Z M10.9497207,12.0815642 L13.0502793,12.0815642 L13.0502793,13.2927374 L10.9497207,13.2927374 L10.9497207,12.0815642 Z M4.89385475,17.7217877 L4.89385475,12.0815642 L10.0558659,12.0815642 L10.0558659,13.7396648 C10.0558659,13.9854749 10.2569832,14.1865922 10.5027933,14.1865922 L13.4972067,14.1865922 C13.7430168,14.1865922 13.9441341,13.9854749 13.9441341,13.7396648 L13.9441341,12.0815642 L19.1061453,12.0815642 L19.1061453,17.7195531 C19.1061453,17.9653631 18.9050279,18.1664989 18.6592179,18.1664989 L5.34078212,18.1664989 C5.09497207,18.1687151 4.89385475,17.9675978 4.89385475,17.7217877 L4.89385475,17.7217877 Z" id="形状" fill="#7D8592" fill-rule="nonzero"></path>
                </g>
            </g>
        </g>
    </g>
</svg>