<!-- <?xml version="1.0" encoding="UTF-8"?>
<svg width="24px" height="24px" viewBox="0 0 24 24" version="1.1" xmlns="http://www.w3.org/2000/svg" xmlns:xlink="http://www.w3.org/1999/xlink">
    <title>菜单管理</title>
    <g id="页面-1" stroke="none" stroke-width="1" fill="none" fill-rule="evenodd">
        <g id="组织架构/单位管理" transform="translate(-16.000000, -356.000000)">
            <g id="编组-2备份-6" transform="translate(8.000000, 346.000000)">
                <g id="菜单管理" transform="translate(8.000000, 10.000000)">
                    <rect id="矩形" x="0" y="0" width="24" height="24"></rect>
                    <path d="M9.19793283,4.74861533 L5.63847883,4.74861533 C4.73449051,4.74861533 4,5.42660656 4,6.33059488 L4,9.94654815 C4,10.8505365 4.73449051,11.5285277 5.58197956,11.5285277 L9.19793283,11.5285277 C10.1019211,11.5285277 10.7799124,10.7940372 10.7799124,9.94654815 L10.7799124,6.33059488 C10.7799124,5.42660656 10.1019211,4.74861533 9.19793283,4.74861533 Z M19.5372992,7.00858612 L16.9948321,4.46611898 C16.3733401,3.84462701 15.3563532,3.84462701 14.7348613,4.46611898 L12.1923941,7.00858612 C11.9098978,7.29108247 11.7404,7.68657736 11.7404,8.13857152 C11.7404,8.59056568 11.9098978,8.98606056 12.1923941,9.26855691 L14.7348613,11.8110241 C15.0173576,12.0935204 15.4128525,12.2630182 15.8648467,12.2630182 C16.3168408,12.2630182 16.7123357,12.0935204 16.9948321,11.8110241 L19.5372992,9.26855691 C19.8197956,8.98606056 19.9892934,8.59056568 19.9892934,8.13857152 C20.0457926,7.68657736 19.8762948,7.29108247 19.5372992,7.00858612 Z M9.19793283,13.2235058 L5.63847883,13.2235058 C4.73449051,13.2235058 4.05649927,13.9579963 4.05649927,14.8054854 L4.05649927,18.4214386 C4.05649927,19.3254269 4.79098978,20.0034182 5.63847883,20.0034182 L9.19793283,20.0034182 C10.1019211,20.0034182 10.7799124,19.2689277 10.7799124,18.4214386 L10.7799124,14.8054854 C10.7799124,13.901497 10.1019211,13.2235058 9.19793283,13.2235058 Z M17.6728233,13.2235058 L14.05687,13.2235058 C13.1528817,13.2235058 12.4748905,13.9579963 12.4748905,14.8054854 L12.4748905,18.4214386 C12.4748905,19.3254269 13.209381,20.0034182 14.05687,20.0034182 L17.6728233,20.0034182 C18.5768116,20.0034182 19.2548029,19.2689277 19.2548029,18.4214386 L19.2548029,14.8054854 C19.2548029,13.901497 18.5768116,13.2235058 17.6728233,13.2235058 Z" id="形状" fill="#7D8592" fill-rule="nonzero"></path>
                </g>
            </g>
        </g>
    </g>
</svg> -->


<svg xmlns="http://www.w3.org/2000/svg" xmlns:xlink="http://www.w3.org/1999/xlink" width="20px" height="20px" viewBox="0 0 20 20" version="1.1">
    <title>切片</title>
    <defs>
        <path d="M4.33161069,0.623846105 L1.36539902,0.623846105 C0.612075423,0.623846105 0,1.1888388 0,1.9421624 L0,4.95545679 C0,5.70878039 0.612075423,6.27377309 1.3183163,6.27377309 L4.33161069,6.27377309 C5.08493429,6.27377309 5.64992698,5.66169767 5.64992698,4.95545679 L5.64992698,1.9421624 C5.64992698,1.1888388 5.08493429,0.623846105 4.33161069,0.623846105 Z M12.9477493,2.5071551 L10.8290267,0.38843248 C10.3111167,-0.129477493 9.4636277,-0.129477493 8.94571773,0.38843248 L6.82699511,2.5071551 C6.59158148,2.74256872 6.45033331,3.0721478 6.45033331,3.4488096 C6.45033331,3.8254714 6.59158148,4.15505047 6.82699511,4.39046409 L8.94571773,6.50918671 C9.18113135,6.74460034 9.51071042,6.88584851 9.88737222,6.88584851 C10.264034,6.88584851 10.5936131,6.74460034 10.8290267,6.50918671 L12.9477493,4.39046409 C13.183163,4.15505047 13.3244111,3.8254714 13.3244111,3.4488096 C13.3714939,3.0721478 13.2302457,2.74256872 12.9477493,2.5071551 Z M4.33161069,7.68625484 L1.36539902,7.68625484 C0.612075423,7.68625484 0.0470827249,8.29833026 0.0470827249,9.00457113 L0.0470827249,12.0178655 C0.0470827249,12.7711891 0.659158148,13.3361818 1.36539902,13.3361818 L4.33161069,13.3361818 C5.08493429,13.3361818 5.64992698,12.7241064 5.64992698,12.0178655 L5.64992698,9.00457113 C5.64992698,8.25124753 5.08493429,7.68625484 4.33161069,7.68625484 Z M11.3940194,7.68625484 L8.38072503,7.68625484 C7.62740143,7.68625484 7.06240873,8.29833026 7.06240873,9.00457113 L7.06240873,12.0178655 C7.06240873,12.7711891 7.67448415,13.3361818 8.38072503,13.3361818 L11.3940194,13.3361818 C12.147343,13.3361818 12.7123357,12.7241064 12.7123357,12.0178655 L12.7123357,9.00457113 C12.7123357,8.25124753 12.147343,7.68625484 11.3940194,7.68625484 Z" id="path-1"/>
    </defs>
    <g id="页面-1" stroke="none" stroke-width="1" fill="none" fill-rule="evenodd">
        <g id="组织架构/单位管理" transform="translate(-16.000000, -454.000000)">
            <g id="编组-2备份-109" transform="translate(8.000000, 442.000000)">
                <g id="下拉" transform="translate(8.000000, 12.000000)">
                    <g id="bright/字色/引导注释-copy" transform="translate(3.333333, 3.333333)">
                        <mask id="mask-2" fill="white">
                            <use xlink:href="#path-1"/>
                        </mask>
                        <use id="蒙版" fill="#7D8592" fill-rule="nonzero" xlink:href="#path-1"/>
                        <g id="编组" mask="url(#mask-2)">
                            <g transform="translate(-25.589074, -25.584094)" id="Bright/zt_free">
                                <rect id="Color/Bright/font/辅助字色2" fill="#7D8592" x="0" y="0" width="129.166667" height="125.577804"/>
                            </g>
                        </g>
                    </g>
                </g>
            </g>
        </g>
    </g>
</svg>