<?xml version="1.0" encoding="UTF-8"?>
<svg width="24px" height="24px" viewBox="0 0 24 24" version="1.1" xmlns="http://www.w3.org/2000/svg" xmlns:xlink="http://www.w3.org/1999/xlink">
    <title>角色管理</title>
    <g id="页面-1" stroke="none" stroke-width="1" fill="none" fill-rule="evenodd">
        <g id="组织架构/单位管理" transform="translate(-16.000000, -308.000000)">
            <g id="编组-2备份-5" transform="translate(8.000000, 298.000000)">
                <g id="角色管理" transform="translate(8.000000, 10.000000)">
                    <rect id="矩形" x="0" y="0" width="24" height="24"></rect>
                    <path d="M7.50039067,8.43966966 C7.50039067,10.3393467 9.03718488,11.8793393 10.9329166,11.8793393 C12.8286484,11.8793393 14.3654426,10.3393467 14.3654426,8.43966966 C14.3654426,6.53999259 12.8286484,5.00000005 10.9329166,5.00000005 C9.03718488,5.00000005 7.50039067,6.53999259 7.50039067,8.43966966 Z M18.3301708,19.1069316 C18.2176582,15.8922871 16.0049113,13.2223463 13.0224355,12.4240429 L11.172229,15.4261637 L9.08092421,12.484764 C6.2181047,13.3580757 4.12144213,15.978011 4.0125014,19.1069316 L18.3301708,19.1069316 Z M15.5923652,7.23060615 L20,7.23060615 L20,8.67362434 L15.5923652,8.67362434 L15.5923652,7.23060615 Z M16.9139413,10.8792276 L20,10.8792276 L20,12.2829557 L16.9139413,12.2829557 L16.9139413,10.8792276 Z M18.0247796,14.4599844 L20,14.4599844 L20,15.9619378 L18.0247796,15.9619378 L18.0247796,14.4599844 Z M7.48788927,8.43966966 C7.48788927,9.66854527 8.14212499,10.8040732 9.20415223,11.418511 C10.2661795,12.0329488 11.574651,12.0329488 12.6366782,11.418511 C13.6987055,10.8040732 14.3529412,9.66854527 14.3529412,8.43966966 C14.3529412,7.21079405 13.6987054,6.07526616 12.6366782,5.46082836 C11.574651,4.84639055 10.2661795,4.84639055 9.20415223,5.46082836 C8.142125,6.07526616 7.48788927,7.21079405 7.48788927,8.43966966 L7.48788927,8.43966966 Z M18.3176694,19.1069316 C18.2051568,15.8922871 15.9924099,13.2223463 13.0099341,12.4240429 L11.1579417,15.4261637 L9.06842282,12.484764 C6.2056033,13.3580757 4.10894073,15.978011 4,19.1069316 L18.3176694,19.1069316 Z M15.5798638,7.23060615 L19.9874986,7.23060615 L19.9874986,8.67362434 L15.5798638,8.67362434 L15.5798638,7.23060615 Z M16.9014399,10.8792276 L19.9874986,10.8792276 L19.9874986,12.2829557 L16.9014399,12.2829557 L16.9014399,10.8792276 Z M18.0122782,14.4599844 L19.9874986,14.4599844 L19.9874986,15.9619378 L18.0122782,15.9619378 L18.0122782,14.4599844 Z" id="形状" fill="#7D8592" fill-rule="nonzero"></path>
                </g>
            </g>
        </g>
    </g>
</svg>