<svg xmlns="http://www.w3.org/2000/svg" xmlns:xlink="http://www.w3.org/1999/xlink" width="20px" height="20px" viewBox="0 0 20 20" version="1.1">
    <title>仓库</title>
    <g id="页面-1" stroke="none" stroke-width="1" fill="none" fill-rule="evenodd">
        <g id="组织架构/单位管理" transform="translate(-16.000000, -790.000000)">
            <g id="编组-2备份-124" transform="translate(8.000000, 778.000000)">
                <rect id="矩形" x="0" y="0" width="224" height="44"/>
                <g id="仓库" transform="translate(18.000000, 22.000000) rotate(-360.000000) translate(-18.000000, -22.000000) translate(8.000000, 12.000000)" fill="#7D8592" fill-rule="nonzero">
                    <path d="M16.4171429,12.0371429 L16.9857143,13.0285714 L10.2857143,16.8742857 C10.1971429,16.9257143 10.1,16.9514286 10,16.9514286 C9.9,16.9514286 9.80285714,16.9257143 9.71428572,16.8742857 L9.71428572,16.8742857 L3.01428572,13.0285714 L3.58285714,12.0371429 L10,15.72 L16.4171429,12.0371429 Z M16.42,9.50857142 L16.9885714,10.5 L10.2857143,14.3457143 C10.1971429,14.3971429 10.0971429,14.4228571 10,14.4228571 C9.93523809,14.4228571 9.86920635,14.4114286 9.80613757,14.389418 L9.71428572,14.3485714 L3.01428572,10.5028571 L3.58285714,9.51142858 L10,13.1914286 L16.42,9.50857142 Z M10.1943915,4.24690476 L10.2857143,4.28857142 L15.9885714,7.56285714 C16.1657143,7.66285714 16.2742857,7.85428572 16.2742857,8.05714286 C16.2742857,8.22619048 16.1988889,8.38531747 16.0712434,8.49318784 L15.9885714,8.55142858 L10.2857143,11.8228571 C10.1971429,11.8742857 10.1,11.9 10,11.9 C9.93333333,11.9 9.86793651,11.8885714 9.80550265,11.8657143 L9.71428572,11.8228571 L4.01428572,8.55142858 C3.83712195,8.44922585 3.72796903,8.26024399 3.72796903,8.05571429 C3.72796903,7.88527287 3.80376967,7.72562856 3.93156188,7.61800318 L4.01428572,7.56 L9.71714286,4.28857142 C9.8647619,4.20523809 10.0381746,4.1913492 10.1943915,4.24690476 Z" id="形状结合"/>
                </g>
            </g>
        </g>
    </g>
</svg>