<?xml version="1.0" encoding="UTF-8"?>
<svg width="24px" height="24px" viewBox="0 0 24 24" version="1.1" xmlns="http://www.w3.org/2000/svg" xmlns:xlink="http://www.w3.org/1999/xlink">
    <title>切片</title>
    <g id="页面-1" stroke="none" stroke-width="1" fill="none" fill-rule="evenodd">
        <g id="组织架构/单位管理" transform="translate(-48.000000, -164.000000)">
            <g id="编组-2备份-2" transform="translate(8.000000, 154.000000)">
                <g id="部门管理" transform="translate(40.000000, 10.000000)">
                    <rect id="矩形" x="0" y="0" width="24" height="24"></rect>
                    <path d="M16.836665,8.58078986 L18.3656753,8.58078986 C19.1988298,8.58078986 19.8759629,7.90365675 19.8759629,7.07050219 L19.8759629,5.54149195 C19.8759629,4.70833739 19.1988298,4.0312043 18.3656753,4.0312043 L16.836665,4.0312043 C16.0035105,4.0312043 15.3263774,4.70833741 15.3263774,5.54149195 L15.3263774,5.98303267 L12.5913213,5.98303267 C12.0202828,5.98303267 11.5553389,6.44797661 11.5553389,7.01901511 L11.5553389,11.6481716 L9.97328133,11.6481716 L9.97328133,11.0677718 C9.97328133,10.0349098 9.1323257,9.19395416 8.09946367,9.19395417 L6.04778156,9.19395417 C5.01491955,9.19395417 4.17396392,10.0349098 4.17396392,11.0677718 L4.17396392,13.1194539 C4.17396392,14.1523159 5.01491955,14.9932716 6.04778156,14.9932716 L8.09946367,14.9932716 C9.13232569,14.9932716 9.97328133,14.152316 9.97328133,13.1194539 L9.97328133,12.5390541 L11.5553389,12.5390541 L11.5553389,17.1682106 C11.5553389,17.7392491 12.0202828,18.2041931 12.5913213,18.2041931 L15.3263774,18.2041931 L15.3263774,18.4897123 C15.3263774,19.3228669 16.0035105,20 16.836665,20 L18.3656753,20 C19.1988298,20 19.8759629,19.3228669 19.8759629,18.4897123 L19.8759629,16.9607021 C19.8759629,16.1275475 19.1988298,15.4504144 18.3656753,15.4504144 L16.836665,15.4504144 C16.0035105,15.4504144 15.3263774,16.1275475 15.3263774,16.9607021 L15.3263774,17.3133106 L12.5913213,17.3133106 C12.5117504,17.3133106 12.4477816,17.2493418 12.4477816,17.1697708 L12.4477816,12.5390541 L15.3263774,12.5390541 L15.3263774,12.8573379 C15.3263774,13.6904925 16.0035105,14.3676256 16.836665,14.3676255 L18.3656753,14.3676255 C19.1988298,14.3676255 19.8759629,13.6904924 19.8759629,12.8573379 L19.8759629,11.3283276 C19.8759629,10.4951731 19.1988298,9.81803997 18.3656753,9.81803998 L16.836665,9.81803998 C16.0035105,9.81803998 15.3263774,10.4951731 15.3263774,11.3283276 L15.3263774,11.6466114 L12.4477816,11.6466114 L12.4477816,7.01901511 C12.4477816,6.93944417 12.5117504,6.87547537 12.5913213,6.87547537 L15.3263774,6.87547537 L15.3263774,7.07206241 C15.3263774,7.90365675 16.0035105,8.58078986 16.836665,8.58078986 Z M9.08083861,13.1194539 C9.08083861,13.6608484 8.64085811,14.1008289 8.09946367,14.1008289 L6.04778156,14.1008289 C5.50638712,14.1008289 5.06640662,13.6608484 5.06640662,13.1194539 L5.06640662,11.0677718 C5.06640662,10.5263774 5.50638712,10.0863969 6.04778156,10.0863969 L8.09946367,10.0863969 C8.64085811,10.0863969 9.08083861,10.5263774 9.08083861,11.0677718 L9.08083861,13.1194539 Z M16.2188201,16.9607021 C16.2188201,16.6205753 16.4965383,16.3428571 16.836665,16.3428571 L18.3656753,16.3428571 C18.705802,16.3428571 18.9835202,16.6205753 18.9835202,16.9607021 L18.9835202,18.4897123 C18.9835202,18.8298391 18.705802,19.1075573 18.3656753,19.1075573 L16.836665,19.1075573 C16.4965383,19.1075573 16.2188201,18.8298391 16.2188201,18.4897123 L16.2188201,16.9607021 Z M16.2188201,11.3283276 C16.2188201,10.9882009 16.4965383,10.7104827 16.836665,10.7104827 L18.3656753,10.7104827 C18.705802,10.7104827 18.9835202,10.9882009 18.9835202,11.3283276 L18.9835202,12.8573379 C18.9835202,13.1974647 18.705802,13.4751828 18.3656753,13.4751828 L16.836665,13.4751828 C16.4965383,13.4751828 16.2188201,13.1974647 16.2188201,12.8573379 L16.2188201,11.3283276 Z M16.2188201,5.54149195 C16.2188201,5.20136519 16.4965383,4.923647 16.836665,4.923647 L18.3656753,4.923647 C18.705802,4.923647 18.9835202,5.20136519 18.9835202,5.54149195 L18.9835202,7.07050219 C18.9835202,7.41062895 18.705802,7.68834714 18.3656753,7.68834714 L16.836665,7.68834714 C16.4965383,7.68834714 16.2188201,7.41062895 16.2188201,7.07050219 L16.2188201,5.54149195 Z" id="形状" fill="#7D8592" fill-rule="nonzero"></path>
                </g>
            </g>
        </g>
    </g>
</svg>