<?xml version="1.0" encoding="UTF-8"?>
<svg width="24px" height="24px" viewBox="0 0 24 24" version="1.1" xmlns="http://www.w3.org/2000/svg" xmlns:xlink="http://www.w3.org/1999/xlink">
    <title>1212</title>
    <g id="页面-1" stroke="none" stroke-width="1" fill="none" fill-rule="evenodd">
        <g id="组织架构/单位管理/提示" transform="translate(-16.000000, -68.000000)" fill="#7D8592" fill-rule="nonzero">
            <g id="编组-2备份-9" transform="translate(8.000000, 58.000000)">
                <g id="1212" transform="translate(8.000000, 10.000000)">
                    <rect id="矩形" opacity="0" x="0" y="0" width="24" height="24"></rect>
                    <path d="M17.2408194,14.6406194 L17.2408194,12.4804065 L12.9203935,12.4804065 L12.9203935,11.0404194 L15.8006,11.0404194 L15.8006,6 L8.6002,6 L8.6002,11.0401871 L11.4804065,11.0401871 L11.4804065,12.4801742 L7.15998065,12.4801742 L7.15998065,14.6403871 L5,14.6403871 L5,18.9605806 L10.0401871,18.9605806 L10.0401871,14.6406194 L8.6002,14.6406194 L8.6002,13.9206258 L15.8008323,13.9206258 L15.8008323,14.6406194 L14.3603806,14.6406194 L14.3603806,18.9608129 L19.4008,18.9608129 L19.4008,14.6406194 L17.2408194,14.6406194 Z M10.0404194,8.88020645 L10.0404194,7.44021935 L12.9203935,7.44021935 L12.9203935,8.88020645 L10.0404194,8.88020645 Z" id="形状"></path>
                </g>
            </g>
        </g>
    </g>
</svg>