<svg xmlns="http://www.w3.org/2000/svg" xmlns:xlink="http://www.w3.org/1999/xlink" width="20px" height="20px" viewBox="0 0 20 20" version="1.1">
    <title>切片</title>
    <defs>
        <path d="M4.47333333,9.24417267 C4.80576293,9.24296288 5.12555183,9.36631569 5.36458333,9.58796524 C5.48166667,9.6958973 5.57375,9.82661503 5.63375,9.9717237 C5.69625,10.1196306 5.72791667,10.274733 5.72791667,10.4378303 C5.72791667,10.6009277 5.69666667,10.7564298 5.63375,10.9043367 C5.57266282,11.048742 5.48100871,11.1794158 5.36458333,11.2880952 C5.24625,11.3960272 5.10916667,11.4839719 4.95958333,11.5463326 C4.80644169,11.6112561 4.64075895,11.644491 4.47333333,11.6438797 C4.29291667,11.6438797 4.12833333,11.6114916 3.97916667,11.5463326 C3.83162285,11.4824856 3.6963856,11.3951773 3.57916667,11.2880952 C3.46189375,11.1800971 3.37011014,11.0492387 3.31,10.9043367 C3.24723245,10.7562053 3.21524406,10.5977332 3.21582534,10.4378303 C3.21582534,10.274733 3.2475,10.1168324 3.31,9.97132395 C3.3725,9.82341704 3.46416667,9.69789605 3.57916667,9.58756549 C3.69541667,9.48043292 3.83083333,9.39448701 3.97916667,9.33452476 C4.12833333,9.2745625 4.29291667,9.24417267 4.47333333,9.24417267 L4.47333333,9.24417267 Z M10.09375,9.26935058 C10.26625,9.26935058 10.4283333,9.2993469 10.5875,9.35930916 C10.7445833,9.41927142 10.8804167,9.50481757 10.9929167,9.61274964 C11.1075,9.72268045 11.1991667,9.85299842 11.2620833,9.9965081 C11.33,10.144415 11.3637645,10.3003169 11.3637645,10.4630145 C11.3645833,10.6237133 11.3295833,10.7828132 11.2620833,10.9295208 C11.1987465,11.0719405 11.1073527,11.2012931 10.9929167,11.3104811 C10.8804167,11.4184131 10.7445833,11.5035595 10.5875,11.5687185 C10.4317497,11.6337798 10.2636228,11.6671288 10.09375,11.6666618 C9.92125,11.6666618 9.75916667,11.6338775 9.6075,11.5687185 C9.45889096,11.5067217 9.32333357,11.4192068 9.2075,11.3104811 C9.09334356,11.201071 9.0019887,11.0717735 8.93833333,10.9295208 C8.86999732,10.7827891 8.83518982,10.6237237 8.83622649,10.4630145 C8.83622649,10.2975186 8.87041667,10.1420165 8.93833333,9.9965081 C9.00625,9.85099968 9.095,9.7230802 9.2075,9.61274964 C9.32166667,9.50321858 9.4575,9.41687293 9.6075,9.35930916 C9.76166667,9.2993469 9.92708333,9.26856627 10.09375,9.26935058 L10.09375,9.26935058 Z M12.3654167,1.9056006 C12.61625,1.9056006 12.8125,1.93837996 12.95375,2.00353895 C13.0920833,2.06869794 13.19125,2.14864762 13.2516667,2.24418749 C13.3116667,2.33972735 13.3379167,2.4400642 13.3325,2.54799627 C13.3275,2.65592833 13.3116667,2.74827021 13.2858333,2.82622115 C13.135684,3.25286966 12.9823467,3.6784794 12.8258333,4.10301752 C12.7183333,4.3936346 12.61125,4.6794547 12.5091667,4.96567455 C12.4045833,5.25149466 12.3258333,5.47455426 12.27375,5.6400501 C12.15625,5.9862322 12.0070833,6.22448225 11.8266667,6.35959721 C11.6466667,6.49311317 11.4266667,6.56067065 11.1654167,6.56067065 L4.06791667,6.56067065 L4.27208333,7.72673671 L11.0820833,7.72673671 C11.5133333,7.72673671 11.73,7.9050245 11.73,8.25840208 C11.73,8.43149313 11.6883333,8.57940004 11.6020833,8.70492103 C11.5158333,8.83044203 11.34875,8.89280278 11.095,8.89280278 L4.0125,8.89280278 C3.8325,8.89280278 3.68041667,8.85562618 3.56041667,8.77767524 C3.43723015,8.69922686 3.33364679,8.59561766 3.25708333,8.47426621 C3.17464026,8.3461378 3.10887241,8.20880021 3.06125,8.0653236 C3.01443373,7.92967834 2.97589618,7.79153099 2.94583333,7.65158402 C2.93791667,7.59881723 2.91166667,7.47369598 2.8725,7.27542078 C2.82083333,7.02757677 2.77125,6.77933302 2.72375,6.53068952 C2.66625,6.23207747 2.60083333,5.89828756 2.52791667,5.53251778 C2.45416667,5.16634825 2.38375,4.79498199 2.31041667,4.42361573 C2.13833333,3.55096499 1.94458333,2.57797739 1.73,1.50705145 L0.716666667,1.50705145 C0.580833333,1.50705145 0.468333333,1.47427208 0.379166667,1.40911309 C0.290487398,1.34371987 0.214471089,1.26388952 0.154583333,1.17326154 C0.0957561642,1.08455655 0.0550338946,0.985934988 0.0345833333,0.882644455 C0.0124842694,0.788823668 0.000890768205,0.693007118 0,0.596824353 C0,0.423733298 0.06,0.280623373 0.183333333,0.167894326 C0.305833333,0.0551652784 0.467916667,8.8817842e-16 0.677083333,8.8817842e-16 L2.04166667,8.8817842e-16 C2.22208333,8.8817842e-16 2.36583333,0.0247844004 2.47291667,0.0775511885 C2.58041667,0.130317977 2.66625,0.195476965 2.72916667,0.273427902 C2.79166667,0.35097909 2.83625,0.433727008 2.865,0.518873416 C2.89125,0.606818063 2.915,0.67957227 2.93333333,0.739534529 C2.95166667,0.809890247 2.96958333,0.905030365 2.98791667,1.03055136 L3.04291667,1.41191133 C3.06916667,1.56741345 3.09791667,1.73290929 3.12375,1.90600034 L12.3654167,1.9056006 Z" id="path-1"/>
    </defs>
    <g id="页面-1" stroke="none" stroke-width="1" fill="none" fill-rule="evenodd">
        <g id="组织架构/单位管理" transform="translate(-16.000000, -406.000000)">
            <g id="编组-2备份-6" transform="translate(8.000000, 394.000000)">
                <g id="下拉" transform="translate(8.000000, 12.000000)">
                    <g id="Bright/zt_free" transform="translate(3.333333, 4.166667)">
                        <mask id="mask-2" fill="white">
                            <use xlink:href="#path-1"/>
                        </mask>
                        <use id="蒙版" fill="#000000" fill-rule="nonzero" xlink:href="#path-1"/>
                        <g id="编组" mask="url(#mask-2)">
                            <g transform="translate(-25.589074, -25.344778)" id="Bright/zt_free">
                                <rect id="Color/Bright/font/辅助字色2" fill="#7D8592" x="0" y="0" width="129.166667" height="120.478861"/>
                            </g>
                        </g>
                    </g>
                </g>
            </g>
        </g>
    </g>
</svg>